<svg version="1.1" id="Layer_1" xmlns="http://www.w3.org/2000/svg" xmlns:xlink="http://www.w3.org/1999/xlink" x="0px" y="0px"
	 width="100%" viewBox="0 0 1024 1024" enable-background="new 0 0 1024 1024" xml:space="preserve">
<path fill="#000000" opacity="1.000000" stroke="none" 
	d="
M460.969727,276.116211 
	C424.336945,261.056335 389.335419,262.517029 356.606689,285.260468 
	C339.570465,297.099060 328.371246,313.382080 327.473022,334.700226 
	C326.291229,362.748718 347.152527,388.068268 375.847107,394.653656 
	C384.581787,396.658264 393.369324,396.372406 402.100494,394.344635 
	C404.164642,393.865265 406.850769,392.701324 407.747742,395.462280 
	C408.787445,398.662598 405.842102,399.659332 403.482330,400.485291 
	C397.477722,402.586853 391.265503,401.932648 385.195496,401.187714 
	C359.787323,398.069489 339.418579,386.634033 327.866486,363.124664 
	C315.516602,337.991608 321.820862,309.595734 343.003845,289.732727 
	C363.299561,270.701721 388.028687,262.617645 415.208832,260.810730 
	C445.021851,258.828735 472.169586,267.149719 497.452087,282.465088 
	C502.581299,285.572205 507.990356,288.309479 512.752991,291.902985 
	C517.241272,295.289459 521.654968,295.315704 526.767822,294.260040 
	C543.763306,290.750946 560.911804,288.473236 578.323608,289.753937 
	C595.752625,291.035858 612.540588,294.817291 628.057190,303.236267 
	C631.457153,305.080994 634.504883,307.363251 637.170715,310.162384 
	C643.940552,317.270844 643.216248,326.334351 635.254395,332.145447 
	C629.259155,336.521179 622.310242,338.010315 615.019287,338.308655 
	C591.171265,339.284454 568.818970,333.574371 547.425537,323.389801 
	C536.885498,318.372040 526.586121,312.920807 516.560974,306.947388 
	C514.365295,305.639069 512.137451,304.419342 509.518555,305.536133 
	C488.027832,314.700928 471.082153,328.509277 464.866974,352.054688 
	C461.371735,365.295990 463.775970,377.389740 475.246948,386.695374 
	C480.217682,390.727692 485.521301,389.795715 490.916443,389.386169 
	C498.822601,388.786133 506.535431,389.731506 514.081177,391.973999 
	C516.780396,392.776154 519.950012,393.982697 519.718994,397.434784 
	C519.488403,400.880310 516.151184,401.642120 513.406799,402.128632 
	C506.372345,403.375519 499.302521,402.614807 492.761353,400.085236 
	C483.326019,396.436523 473.881134,396.455109 464.292023,398.443207 
	C436.122711,404.283539 409.898407,414.514679 388.664795,434.619354 
	C369.383636,452.875366 355.128876,474.341461 350.990265,501.202545 
	C347.506805,523.811462 354.606506,542.383972 373.905029,555.383972 
	C397.622345,571.360413 423.854797,574.231750 450.452881,565.941345 
	C495.462555,551.912292 524.933289,520.952698 541.259521,477.110321 
	C543.064148,472.264282 543.767029,467.139496 544.010498,461.941315 
	C544.842590,444.174164 535.349304,432.287720 517.861206,429.263367 
	C501.730591,426.473816 486.685364,430.336273 472.402313,437.309113 
	C448.453278,449.000702 429.533600,466.045044 419.119080,491.102264 
	C415.095428,500.783112 411.862701,510.934998 417.131683,521.466553 
	C417.901245,523.004761 417.886688,524.984192 415.842102,525.668396 
	C413.794250,526.353760 412.734680,524.594421 412.135834,523.098389 
	C408.785461,514.729004 409.101776,506.151581 411.192352,497.583405 
	C415.892120,478.321259 427.460236,463.424164 442.046295,450.776154 
	C458.868042,436.189514 478.169647,426.345306 500.461517,423.312622 
	C509.556122,422.075348 518.700806,421.931763 527.597351,425.207611 
	C547.705383,432.611542 554.341003,450.299438 552.715210,469.808136 
	C550.155090,500.528168 534.353699,523.906982 510.480591,542.212097 
	C482.762085,563.465698 452.022095,576.952942 416.317169,575.111206 
	C377.770569,573.122803 342.885986,548.005432 333.401794,512.437866 
	C327.392456,489.901672 332.256714,469.506897 345.585114,450.970673 
	C361.616516,428.675262 384.167450,415.735168 409.776642,407.354767 
	C427.831238,401.446564 446.093933,396.353149 464.700134,392.502350 
	C466.445435,392.141083 468.150421,391.585205 470.258942,391.015778 
	C468.413055,387.785706 465.484222,386.384888 463.189453,384.375610 
	C446.377319,369.654755 442.350983,347.480499 453.576324,330.959869 
	C459.252533,322.606018 467.186310,316.905029 475.817169,312.015350 
	C484.210541,307.260132 493.221252,303.810059 503.646027,299.403534 
	C489.412567,290.034882 475.729126,282.520477 460.969727,276.116211 
M608.709473,332.700775 
	C616.548096,332.838043 624.454529,333.201294 631.517273,328.896301 
	C637.858032,325.031372 638.568359,319.405518 633.499512,313.935791 
	C629.921692,310.075073 625.466309,307.377777 620.668762,305.449158 
	C590.971069,293.510712 560.547974,292.142120 529.580017,299.554596 
	C528.951660,299.705017 528.331665,300.033325 528.281921,301.631439 
	C536.083191,306.214630 544.164001,311.084656 552.360352,315.751892 
	C569.550842,325.540710 588.053772,331.122253 608.709473,332.700775 
z"/>
<path fill="#000000" opacity="1.000000" stroke="none" 
	d="
M541.319458,420.182495 
	C565.963013,416.203857 579.557617,402.349854 584.656372,376.605194 
	C586.643921,366.569702 587.027710,356.461823 586.691956,346.295441 
	C586.593750,343.320282 587.156433,341.419067 590.809814,341.960846 
	C602.547607,343.701447 614.301453,344.289978 626.055908,342.010590 
	C626.485962,341.927155 626.990662,342.228546 628.049744,342.503662 
	C629.555359,361.291992 624.951599,378.274750 612.895630,393.034729 
	C601.001099,407.596985 584.988586,415.823151 566.215515,422.146393 
	C574.051025,423.886993 580.603821,425.252808 587.112000,426.805756 
	C604.464783,430.946442 620.295532,438.216675 632.574219,451.446716 
	C649.447571,469.627533 653.382629,491.673553 648.778137,515.215088 
	C642.574829,546.931152 621.318909,565.165161 591.952393,575.106567 
	C578.798767,579.559509 565.084045,581.462463 551.166321,581.275879 
	C516.195068,580.806946 481.230377,579.656433 446.248657,580.362915 
	C445.285889,580.382385 444.238586,580.542114 442.744873,578.861755 
	C463.279205,574.760559 481.887482,566.892639 499.910675,555.846191 
	C503.151031,567.946472 512.150208,569.514709 521.937988,570.064148 
	C538.741150,571.007446 555.282898,569.789368 570.918335,563.189026 
	C587.264221,556.288818 597.634521,543.635254 602.899475,526.898621 
	C608.101318,510.362427 608.623718,493.415619 604.887512,476.580536 
	C598.182007,446.365875 578.558105,434.672729 552.623108,431.680542 
	C544.770630,430.774536 540.430115,425.758789 534.177246,422.405853 
	C536.276123,419.906158 538.907349,421.102234 541.319458,420.182495 
z"/>
<path fill="#000000" opacity="1.000000" stroke="none" 
	d="
M476.594208,549.695557 
	C469.776947,553.432800 463.281738,557.002197 455.429596,559.268066 
	C456.232910,552.728333 457.507263,547.012695 457.541321,541.289673 
	C457.709839,512.982666 457.609772,484.673370 457.420135,456.366119 
	C457.399933,453.349823 458.112122,451.374664 460.584167,449.663055 
	C470.565613,442.752136 481.548615,438.161865 493.237854,435.110199 
	C496.656830,434.217621 498.169189,435.302582 498.162964,438.992615 
	C498.111633,469.466766 498.137268,499.941162 498.191681,530.415344 
	C498.196350,533.029297 496.980774,534.743652 495.086243,536.324036 
	C489.322693,541.131714 483.305634,545.576904 476.594208,549.695557 
z"/>
<path fill="#000000" opacity="1.000000" stroke="none" 
	d="
M498.117859,368.994385 
	C498.113007,373.155914 498.136444,376.818817 498.091217,380.480927 
	C498.072449,382.003448 497.877899,383.416809 496.100250,384.109100 
	C489.314392,386.751831 478.655334,384.198120 473.916809,378.509796 
	C467.393188,370.678619 467.563446,361.519409 469.803894,352.429108 
	C473.598022,337.035065 484.029602,326.677582 496.356628,317.979279 
	C496.943909,318.151459 497.531189,318.323669 498.118469,318.495850 
	C498.118469,335.162384 498.118469,351.828949 498.117859,368.994385 
z"/>
<path fill="#000000" opacity="1.000000" stroke="none" 
	d="
M332.567474,682.334717 
	C328.378021,682.116150 324.566620,682.827332 319.519043,681.517456 
	C326.015198,679.057251 324.779755,674.316223 324.802155,670.043030 
	C324.843170,662.219116 324.731720,654.393616 324.847534,646.571167 
	C324.905457,642.660034 324.952209,638.920288 320.351868,636.603760 
	C330.272461,636.729919 340.256134,633.451050 349.419434,639.114624 
	C355.476501,642.858459 355.512177,651.724060 349.794159,656.788452 
	C348.578461,657.865234 347.211731,658.771484 345.566986,660.020325 
	C350.184570,663.160583 351.057526,667.928040 352.358765,672.565247 
	C353.061218,675.068604 352.451813,679.293518 356.167328,679.165283 
	C359.544739,679.048706 362.578766,677.309814 364.044525,673.079529 
	C367.854706,662.082886 372.364044,651.328125 376.620026,640.486877 
	C377.261475,638.852844 377.428406,636.841614 379.623138,636.199829 
	C381.784332,637.376465 382.010529,639.716309 382.774841,641.648926 
	C386.629395,651.395447 390.344330,661.197144 394.172821,670.954102 
	C395.611389,674.620300 396.449768,678.659668 400.299561,681.327576 
	C395.277435,682.701477 390.511749,682.314148 385.428345,682.144897 
	C385.772339,679.418335 389.724152,679.074890 388.406311,676.072754 
	C386.946045,672.746094 386.631500,668.807800 383.968170,666.152405 
	C381.847412,664.037903 370.455231,665.386841 369.066376,667.567322 
	C365.021515,673.917542 365.492737,677.405579 370.941956,681.161743 
	C370.264099,682.885254 368.731506,682.265015 367.537201,682.314758 
	C363.234467,682.494141 358.951752,682.190247 354.637909,683.121887 
	C350.152863,684.090454 347.328522,681.576904 346.143250,677.326172 
	C345.161255,673.804504 344.481506,670.198853 343.506805,666.674927 
	C342.648071,663.570312 340.946930,661.400513 337.292816,661.207214 
	C333.775452,661.021179 331.877197,662.064453 332.204803,665.933777 
	C332.386688,668.082214 332.373352,670.270813 332.196777,672.420715 
	C331.890594,676.148682 332.421295,679.371582 336.443024,680.757385 
	C335.759827,682.885071 334.185547,682.103333 332.567474,682.334717 
M343.638153,640.937683 
	C342.965607,640.459778 342.351593,639.847595 341.611359,639.525024 
	C335.132935,636.701477 332.301544,638.532593 332.245880,645.563721 
	C332.220947,648.717224 332.345612,651.873901 332.249481,655.024414 
	C332.161255,657.916199 333.568665,658.745300 336.246521,658.626160 
	C345.240570,658.226013 348.801270,650.587646 343.638153,640.937683 
M380.657074,662.674194 
	C382.774414,662.247498 382.750977,660.857788 382.138062,659.271606 
	C380.606079,655.307068 379.040375,651.355652 377.083893,646.368286 
	C374.908356,652.249634 373.123108,657.075806 371.022522,662.754456 
	C374.631897,662.754456 377.249725,662.754456 380.657074,662.674194 
z"/>
<path fill="#000000" opacity="1.000000" stroke="none" 
	d="
M473.094208,308.129333 
	C467.936951,311.389252 463.103058,314.478271 458.357910,317.510590 
	C456.474487,316.040710 456.913574,314.240997 456.744110,312.658936 
	C455.313538,299.303741 449.943146,293.859589 436.576935,292.307922 
	C433.442871,291.944061 430.308441,291.433258 427.164246,291.345032 
	C423.311188,291.236938 423.721771,288.636169 423.624939,286.122223 
	C423.519226,283.377808 424.247833,281.665771 427.479462,281.771027 
	C439.269073,282.155060 451.123627,281.811096 462.830963,282.975250 
	C469.728119,283.661133 475.607117,288.354584 481.642944,291.807587 
	C484.997314,293.726562 488.964966,294.886780 491.761078,298.613739 
	C485.452148,301.827667 479.434845,304.893036 473.094208,308.129333 
z"/>
<path fill="#000000" opacity="1.000000" stroke="none" 
	d="
M698.378723,680.190918 
	C694.583984,668.972168 690.898499,658.102722 687.310913,647.201050 
	C686.077759,643.453796 684.585388,639.892578 680.794373,636.606995 
	C686.284607,635.588989 690.720581,635.774292 696.221008,636.392151 
	C692.672668,639.895325 693.475037,643.073486 694.685181,646.418701 
	C697.281128,653.594421 699.105713,661.044067 702.609009,668.759949 
	C704.834412,661.731140 707.031189,655.359924 708.842529,648.880920 
	C710.146790,644.215576 707.057312,640.759583 704.231201,636.617371 
	C709.467712,635.367737 714.190369,635.954407 719.425964,636.159607 
	C715.457031,641.224487 715.434204,641.231873 717.446289,647.435364 
	C719.686951,654.343750 721.974670,661.236938 724.591492,669.200562 
	C727.419800,660.561829 729.843018,652.972290 732.399048,645.427734 
	C733.808838,641.266479 731.403259,639.072876 727.609985,637.022644 
	C732.325928,635.120300 736.200195,636.032593 740.199890,636.343994 
	C732.145996,649.349182 730.297180,663.887756 725.380066,677.304993 
	C724.415710,679.936462 724.546143,679.984253 722.126709,682.744873 
	C717.607788,673.067505 715.462952,662.794006 710.869080,651.992188 
	C708.458008,659.572510 706.367798,666.091125 704.315857,672.621765 
	C703.518372,675.160217 702.937012,677.773621 702.018433,680.264832 
	C701.171997,682.560425 699.917297,683.486267 698.378723,680.190918 
z"/>
<path fill="#000000" opacity="1.000000" stroke="none" 
	d="
M498.154053,412.963135 
	C498.530365,416.924988 497.401825,418.791870 493.479645,419.498444 
	C482.597321,421.458740 472.426453,425.606873 462.637970,430.706360 
	C461.345825,431.379547 460.204651,432.524261 457.844757,432.110046 
	C457.844757,423.704132 457.782166,415.167877 457.893585,406.633881 
	C457.918121,404.754883 459.841949,404.508179 461.234924,404.144287 
	C472.618622,401.170471 483.826385,401.308136 494.977020,405.567932 
	C498.792664,407.025543 497.918152,409.838928 498.154053,412.963135 
z"/>
<path fill="#000000" opacity="1.000000" stroke="none" 
	d="
M629.689819,649.539062 
	C628.786621,654.810608 625.368469,657.596802 620.758972,659.922302 
	C626.840881,663.204102 627.264282,668.872131 628.546021,674.151978 
	C629.394897,677.648804 629.991394,681.819580 636.168396,677.495239 
	C634.895142,681.834595 632.753601,683.077271 629.766724,683.266174 
	C626.374084,683.480713 623.790100,682.034973 622.737488,678.840759 
	C621.440796,674.906250 620.652649,670.807129 619.531250,666.810852 
	C618.730042,663.955322 617.360107,661.618286 613.934998,661.256531 
	C610.164551,660.858215 607.655701,661.631470 608.179016,666.221497 
	C608.385071,668.028748 608.262085,669.880737 608.201538,671.709473 
	C608.075195,675.528992 607.704529,679.424072 612.538757,681.482483 
	C607.122192,682.627441 601.996521,682.338196 596.326843,681.718567 
	C602.215149,678.819214 600.779358,673.768555 600.799927,669.203857 
	C600.834534,661.548279 600.829285,653.892334 600.811035,646.236633 
	C600.802368,642.587646 601.585876,638.538208 596.047607,636.983154 
	C606.310303,636.346802 616.193298,633.781555 625.386536,639.174683 
	C629.016724,641.304382 629.989197,645.087769 629.689819,649.539062 
M608.209473,649.503235 
	C608.226440,651.493896 608.227661,653.484863 608.265747,655.475098 
	C608.292236,656.857849 608.530457,658.036621 610.169861,658.541504 
	C613.511353,659.570679 619.849121,656.815491 621.271057,653.599426 
	C623.501221,648.555420 621.637878,641.458984 617.557739,639.457520 
	C611.673706,636.571228 608.317017,638.587280 608.213989,645.075439 
	C608.195557,646.236511 608.210327,647.398071 608.209473,649.503235 
z"/>
<path fill="#000000" opacity="1.000000" stroke="none" 
	d="
M561.529663,675.134033 
	C561.600342,665.227844 561.604736,655.740784 561.665100,646.254028 
	C561.689453,642.444458 561.598694,638.757629 557.002136,637.834351 
	C557.238525,635.926819 558.348938,635.944336 559.307251,635.934814 
	C564.298828,635.885193 569.303833,635.661682 574.279541,635.939270 
	C579.882263,636.251831 585.558289,637.177917 587.681091,643.489380 
	C589.762756,649.678833 586.750488,654.046265 581.002258,657.500000 
	C585.642395,659.350830 589.724609,661.199036 591.092896,666.025879 
	C593.122559,673.186218 589.467407,679.969727 581.798096,681.620239 
	C573.689331,683.365295 565.402405,682.085815 556.149841,682.307007 
	C558.364990,679.372437 561.590454,678.651184 561.529663,675.134033 
M583.470154,673.549438 
	C583.961426,671.090942 584.131836,668.599731 583.627808,666.147156 
	C582.666687,661.471008 577.947632,658.860413 571.876404,659.363403 
	C566.538025,659.805725 568.874084,663.918823 568.442810,666.579651 
	C568.103210,668.674805 568.362854,670.872437 568.407532,673.023438 
	C568.537292,679.273376 570.828247,681.047974 576.899719,679.493286 
	C579.766052,678.759338 581.937439,677.056885 583.470154,673.549438 
M577.193542,655.958923 
	C581.819397,652.423828 581.537109,647.603516 580.114319,642.882812 
	C579.002319,639.192993 575.628540,638.117188 572.085144,638.491455 
	C568.479248,638.872375 568.607117,641.948303 568.432312,644.578064 
	C568.311707,646.392578 568.362793,648.220398 568.381531,650.041870 
	C568.459351,657.600037 568.831482,657.883667 577.193542,655.958923 
z"/>
<path fill="#000000" opacity="1.000000" stroke="none" 
	d="
M501.721191,639.621033 
	C515.599731,630.047119 531.210205,636.052002 534.598511,652.136719 
	C536.449768,660.924744 535.531616,669.405090 529.377258,676.552551 
	C523.946716,682.859375 516.877502,684.574280 509.035278,682.741028 
	C501.428040,680.962830 496.303864,676.009338 494.664612,668.400085 
	C492.415100,657.958008 492.679596,647.822449 501.721191,639.621033 
M512.152222,680.637024 
	C517.150513,681.458801 520.895264,679.604553 523.645874,675.407715 
	C529.169739,666.979553 529.138062,651.271729 523.521545,642.998474 
	C518.369141,635.408875 509.183380,635.380127 504.851074,643.467834 
	C499.498260,653.460571 499.665466,663.950806 504.513672,674.205688 
	C505.888000,677.112671 508.338593,679.218811 512.152222,680.637024 
z"/>
<path fill="#000000" opacity="1.000000" stroke="none" 
	d="
M652.579712,636.118225 
	C665.151062,633.507324 673.766907,637.503784 677.966309,647.575867 
	C682.795959,659.159912 679.217407,674.054199 670.177368,679.993408 
	C658.729797,687.514343 644.150146,682.578674 639.633118,669.653259 
	C634.859192,655.992737 640.164551,641.899109 652.579712,636.118225 
M645.777710,656.052490 
	C645.264893,662.814270 646.134644,669.331604 649.740662,675.196899 
	C653.842285,681.868286 661.645508,682.925354 666.612305,677.641357 
	C674.226868,669.540527 674.370239,649.588623 666.872925,641.376038 
	C661.509949,635.501404 653.989990,636.176208 649.701599,642.973999 
	C647.350098,646.701599 646.254883,650.852478 645.777710,656.052490 
z"/>
<path fill="#000000" opacity="1.000000" stroke="none" 
	d="
M752.043152,645.555542 
	C750.500000,643.808716 750.318848,645.019897 750.316650,646.074524 
	C750.296204,655.897461 750.388428,665.721130 750.293335,675.543091 
	C750.259460,679.039551 753.411926,679.343567 756.100586,681.405518 
	C751.409912,682.841858 747.534363,682.435181 741.995361,681.638306 
	C748.679077,678.469482 747.599976,673.438416 747.629028,668.786560 
	C747.673767,661.627319 747.692932,654.467285 747.631226,647.308411 
	C747.597473,643.395325 748.702698,638.943909 742.305298,637.607788 
	C749.794495,634.373413 753.848145,635.416504 757.338440,640.743408 
	C763.160156,649.628357 768.944580,658.537659 775.711304,667.217224 
	C775.711304,659.001221 775.763733,650.784607 775.671021,642.569641 
	C775.650208,640.733154 775.415771,640.735779 770.458862,636.641296 
	C774.940063,635.429565 778.975830,635.682434 784.647339,636.691650 
	C777.795166,640.041565 778.720215,645.038147 778.810425,649.999756 
	C778.985718,659.640747 778.775513,669.288696 778.727539,678.933777 
	C778.720947,680.260498 778.781311,681.606750 776.458496,683.213135 
	C768.337341,670.683594 760.273438,658.242371 752.043152,645.555542 
z"/>
<path fill="#000000" opacity="1.000000" stroke="none" 
	d="
M253.063599,682.345459 
	C249.626572,682.344727 246.676651,682.344727 243.726746,682.344727 
	C249.451691,678.249146 247.610687,672.628662 247.689407,667.620117 
	C247.801849,660.466187 247.564819,653.304688 247.777283,646.155334 
	C247.892899,642.265259 247.550125,638.898621 243.304672,637.452759 
	C244.357498,635.354553 246.030060,635.845642 247.430420,635.838135 
	C255.251007,635.796021 263.074280,635.943970 270.891846,635.787781 
	C274.286987,635.719910 275.945862,636.730530 275.368988,640.350403 
	C274.969513,642.857300 275.924622,645.546875 274.718689,647.897461 
	C272.932892,647.996582 272.898926,646.847717 272.607880,645.935486 
	C270.645081,639.782654 263.200256,636.608459 257.294373,639.374023 
	C256.120850,639.923584 255.352539,640.777588 255.335983,642.022278 
	C255.276276,646.510864 255.285049,651.001221 255.342941,655.489929 
	C255.360580,656.858459 256.264832,657.549866 257.603882,657.667358 
	C259.547302,657.837952 261.201080,657.418579 262.364075,655.647034 
	C263.445496,653.999756 263.130188,651.698242 265.846802,649.546753 
	C265.846802,656.238586 265.846802,662.139709 265.846802,668.150696 
	C263.280396,667.904846 263.962616,665.730225 263.458832,664.358643 
	C262.483124,661.702209 260.776398,660.200073 257.842834,660.416565 
	C254.441589,660.667664 255.335617,663.323181 255.195969,665.319885 
	C255.080139,666.975952 254.889832,668.705872 255.227463,670.298157 
	C255.923981,673.583008 252.712830,679.057556 258.759613,679.542847 
	C268.171814,680.298218 271.974335,680.584961 273.737518,671.870056 
	C273.968414,670.728821 274.180664,669.607483 275.910645,669.053406 
	C277.374176,672.738037 276.975677,676.511047 276.856018,680.178528 
	C276.781616,682.458984 274.670166,682.323364 273.020569,682.331482 
	C266.530762,682.363403 260.040710,682.345520 253.063599,682.345459 
z"/>
<path fill="#000000" opacity="1.000000" stroke="none" 
	d="
M291.897736,678.336182 
	C296.281250,680.843079 300.975586,679.988342 305.420227,679.385620 
	C311.302002,678.588074 310.515320,672.390564 312.672272,668.421143 
	C314.570496,671.323975 314.873108,675.448975 313.738831,682.001282 
	C303.413910,682.001282 293.031311,682.001282 281.401154,682.001282 
	C289.235565,666.869751 298.389893,653.526123 306.707794,639.005066 
	C301.293701,638.832886 296.607788,638.277771 291.845032,639.195862 
	C285.833374,640.354736 287.446594,646.655457 284.095673,650.830383 
	C282.362976,645.824097 282.799896,641.582458 283.345520,637.448547 
	C283.579315,635.677246 285.675446,635.879822 287.140991,635.871826 
	C295.133484,635.828247 303.127625,635.739441 311.118347,635.859070 
	C315.542053,635.925354 316.104553,637.049988 313.763947,641.046143 
	C306.531708,653.393860 299.205688,665.686646 291.897736,678.336182 
z"/>
<path fill="#000000" opacity="1.000000" stroke="none" 
	d="
M466.958496,653.008789 
	C466.960388,649.847839 467.133026,647.170349 466.907898,644.526672 
	C466.730591,642.444458 468.150299,639.073853 464.820404,638.793274 
	C461.481781,638.512024 457.721405,638.847534 456.278320,643.198975 
	C455.576996,645.313843 455.909851,647.838196 453.609528,650.021973 
	C451.927887,645.785767 452.894287,641.667908 452.498932,637.744690 
	C452.330872,636.077209 454.097290,635.884277 455.473785,635.882751 
	C465.458923,635.871704 475.444092,635.895203 485.429138,635.865051 
	C488.163483,635.856812 489.499176,637.119080 489.202667,639.836426 
	C488.841187,643.149231 490.063019,646.705505 487.967346,649.885925 
	C485.579926,648.815063 486.062195,646.744446 485.701782,645.055969 
	C484.689606,640.313843 481.168152,637.977173 476.528625,638.813538 
	C474.499603,639.179382 474.308472,640.521301 474.308838,642.095154 
	C474.311310,653.079651 474.406647,664.064941 474.291565,675.048157 
	C474.249512,679.063354 477.485382,679.528381 479.927643,681.659424 
	C473.881378,681.659424 467.835144,681.659424 461.788910,681.659424 
	C468.165070,679.397156 466.880035,674.133789 466.922577,669.484558 
	C466.971283,664.158997 466.949097,658.832764 466.958496,653.008789 
z"/>
<path fill="#000000" opacity="1.000000" stroke="none" 
	d="
M424.994995,680.742432 
	C421.419983,683.808655 417.439850,681.734192 413.039795,682.152771 
	C422.373352,667.462830 425.482727,650.756653 433.181854,636.072815 
	C435.811096,637.035645 435.949677,639.061035 436.589783,640.678955 
	C440.566071,650.729126 444.502777,660.795105 448.404633,670.874451 
	C449.836487,674.573181 451.071991,678.359009 455.294952,681.676453 
	C449.421692,682.768005 444.623230,682.269165 438.552094,682.156494 
	C445.706726,676.963196 440.797821,672.349731 439.528381,667.699219 
	C439.084564,666.073364 437.793182,665.358215 436.092133,665.380615 
	C434.428802,665.402466 432.764740,665.364258 431.101013,665.361023 
	C424.390320,665.348206 420.542145,669.146606 420.409058,675.771179 
	C420.346649,678.876404 422.821198,679.389038 424.994995,680.742432 
M431.508179,662.799377 
	C433.362885,662.507629 435.464783,663.453918 437.329498,661.532104 
	C435.519165,656.898560 433.694275,652.227783 431.506042,646.627075 
	C428.881653,652.309265 427.059875,657.097839 425.565063,662.506470 
	C427.768646,662.633362 429.225403,662.717285 431.508179,662.799377 
z"/>
<path fill="#000000" opacity="1.000000" stroke="none" 
	d="
M551.933533,285.283997 
	C542.875793,286.107544 534.233704,287.171783 525.905884,289.412964 
	C518.627380,291.371796 514.545654,286.919983 509.677673,282.983429 
	C525.764160,282.289093 541.749023,280.938507 558.251892,283.066040 
	C556.405273,285.856689 554.206238,284.953644 551.933533,285.283997 
z"/>
<path fill="#000000" opacity="1.000000" stroke="none" 
	d="
M573.684082,307.323883 
	C571.819092,305.047119 569.436829,303.664948 568.022705,300.696655 
	C573.793030,298.925476 579.202271,300.640137 584.476318,301.032043 
	C591.733459,301.571350 598.815735,303.574951 605.947327,305.153534 
	C616.359863,307.458252 619.583862,315.955383 623.510864,323.929413 
	C624.934509,326.820099 622.433044,327.209198 620.336975,327.357269 
	C611.858215,327.956207 603.433899,327.494415 595.070312,325.962891 
	C593.766663,325.724182 592.466858,325.446899 591.153442,325.281860 
	C585.755737,324.603302 581.431213,322.788513 579.686218,316.840637 
	C578.665283,313.360596 576.339111,310.369598 573.684082,307.323883 
z"/>
</svg>