<?xml version="1.0" encoding="utf-8" ?>
<svg baseProfile="full" height="2000" version="1.1" width="2000" xmlns="http://www.w3.org/2000/svg" xmlns:ev="http://www.w3.org/2001/xml-events" xmlns:xlink="http://www.w3.org/1999/xlink"><defs /><path d="M 1055,589 L 1105,616 L 1152,632 L 1201,637 L 1216,635 L 1230,626 L 1229,621 L 1216,610 L 1191,598 L 1163,590 L 1126,585 L 1077,586 Z" fill="black" stroke="none" /><path d="M 1023,584 L 1039,579 L 1077,573 L 1125,573 L 1163,578 L 1194,586 L 1221,598 L 1238,612 L 1242,619 L 1243,627 L 1240,634 L 1234,640 L 1217,647 L 1194,649 L 1155,645 L 1124,637 L 1098,627 Z" fill="black" stroke="none" /><path d="M 958,580 L 904,551 L 849,533 L 828,530 L 792,530 L 746,540 L 719,552 L 703,562 L 687,575 L 667,598 L 655,621 L 649,644 L 649,668 L 654,688 L 662,705 L 672,719 L 698,742 L 720,753 L 744,759 L 769,759 L 790,754 L 796,755 L 806,765 L 807,774 L 805,779 L 846,766 L 886,756 L 894,756 L 873,732 L 862,707 L 860,674 L 865,654 L 877,633 L 891,618 L 917,600 Z" fill="black" stroke="none" /><path d="M 1234,597 L 1209,583 L 1190,576 L 1136,565 L 1078,565 L 1010,576 L 965,548 L 923,527 L 884,514 L 842,508 L 793,509 L 752,517 L 708,535 L 678,555 L 652,582 L 638,605 L 630,627 L 627,644 L 627,666 L 633,694 L 648,723 L 676,752 L 695,764 L 713,772 L 755,781 L 783,780 L 790,777 L 794,770 L 789,767 L 769,772 L 743,772 L 724,768 L 698,757 L 679,744 L 663,728 L 649,708 L 639,684 L 636,668 L 636,642 L 643,616 L 663,582 L 687,558 L 712,541 L 750,525 L 791,517 L 829,517 L 868,524 L 896,534 L 932,551 L 984,582 L 940,601 L 911,618 L 888,639 L 877,658 L 872,686 L 878,714 L 890,734 L 901,746 L 920,760 L 920,763 L 847,779 L 766,806 L 731,825 L 709,841 L 686,863 L 669,885 L 650,925 L 645,951 L 645,972 L 648,992 L 656,1017 L 667,1038 L 681,1057 L 710,1084 L 727,1095 L 757,1109 L 798,1119 L 839,1120 L 884,1112 L 921,1099 L 967,1075 L 999,1052 L 1031,1021 L 1049,996 L 1067,959 L 1075,927 L 1076,894 L 1070,869 L 1054,845 L 1044,837 L 1028,829 L 1003,824 L 975,825 L 935,835 L 904,849 L 868,873 L 839,901 L 819,928 L 809,947 L 799,983 L 800,1009 L 803,1019 L 808,1024 L 812,1021 L 806,1003 L 808,976 L 823,938 L 846,906 L 868,884 L 901,860 L 926,847 L 948,839 L 979,833 L 1002,833 L 1021,837 L 1034,843 L 1051,858 L 1056,866 L 1062,889 L 1060,916 L 1047,955 L 1024,995 L 994,1032 L 967,1057 L 928,1084 L 893,1100 L 847,1111 L 799,1111 L 771,1105 L 752,1098 L 719,1078 L 705,1065 L 693,1049 L 682,1020 L 680,985 L 690,942 L 707,906 L 733,869 L 766,836 L 800,812 L 856,787 L 911,773 L 940,771 L 959,778 L 985,783 L 1001,782 L 1011,777 L 1012,772 L 1008,767 L 991,761 L 974,759 L 936,761 L 916,746 L 904,725 L 902,693 L 911,664 L 929,637 L 961,609 L 991,593 L 999,591 L 1060,625 L 1115,647 L 1168,657 L 1207,657 L 1233,649 L 1244,640 L 1249,631 L 1250,619 L 1248,613 Z" fill="black" stroke="none" /><path d="M 1239,585 L 1256,601 L 1261,610 L 1263,618 L 1261,636 L 1254,648 L 1241,659 L 1225,666 L 1207,669 L 1185,670 L 1140,666 L 1104,657 L 1064,641 L 998,605 L 965,621 L 939,644 L 922,669 L 914,695 L 914,714 L 917,725 L 922,734 L 938,748 L 986,747 L 1013,755 L 1022,763 L 1025,770 L 1025,777 L 1021,785 L 1012,792 L 995,796 L 973,794 L 938,783 L 902,787 L 850,803 L 805,824 L 774,846 L 749,870 L 722,906 L 702,947 L 693,987 L 695,1019 L 705,1044 L 728,1069 L 764,1089 L 806,1099 L 848,1098 L 891,1088 L 925,1072 L 957,1050 L 987,1021 L 1012,990 L 1032,957 L 1045,924 L 1049,902 L 1049,887 L 1043,869 L 1032,857 L 1019,850 L 1002,846 L 979,846 L 962,848 L 934,857 L 897,877 L 857,913 L 834,945 L 824,967 L 819,990 L 819,1002 L 825,1015 L 825,1023 L 821,1031 L 811,1037 L 803,1036 L 795,1030 L 789,1018 L 786,1001 L 786,986 L 790,963 L 805,927 L 825,898 L 849,873 L 884,846 L 909,833 L 945,819 L 976,812 L 999,811 L 1030,816 L 1055,830 L 1071,845 L 1077,854 L 1088,886 L 1089,916 L 1082,954 L 1064,996 L 1040,1030 L 1009,1060 L 975,1085 L 931,1108 L 883,1125 L 839,1133 L 808,1133 L 786,1130 L 750,1120 L 728,1110 L 701,1093 L 673,1067 L 649,1032 L 635,993 L 632,957 L 638,921 L 656,882 L 681,850 L 717,819 L 747,801 L 764,794 L 739,792 L 712,785 L 685,773 L 671,764 L 642,736 L 629,716 L 621,698 L 614,663 L 615,638 L 620,616 L 631,591 L 640,577 L 669,546 L 705,522 L 748,505 L 795,496 L 851,496 L 888,502 L 925,514 L 973,538 L 1012,563 L 1096,551 L 1137,552 L 1186,561 L 1218,573 Z" fill="black" stroke="none" /><path d="M 0,0 L 0,1999 L 1999,1999 L 1999,0 Z" fill="black" stroke="none" /></svg>